<?xml version="1.0" encoding="UTF-8" ?>
<!DOCTYPE svg PUBLIC "-//W3C//DTD SVG 1.1//EN" "http://www.w3.org/Graphics/SVG/1.1/DTD/svg11.dtd">
<svg width="200pt" height="42pt" viewBox="0 0 200 42" version="1.1" xmlns="http://www.w3.org/2000/svg">
<path fill="#ffffff" d=" M 0.00 0.00 L 200.00 0.00 L 200.00 42.00 L 0.00 42.00 L 0.00 0.00 Z" />
<path fill="#33d6ff" d=" M 25.77 1.13 C 27.35 1.21 28.93 1.29 30.51 1.37 C 30.70 8.91 30.49 16.45 30.73 23.98 C 30.70 27.54 35.63 28.00 35.93 31.64 C 33.08 31.45 29.72 31.72 27.56 29.47 C 25.76 27.85 25.88 25.24 25.79 23.03 C 25.86 15.73 25.60 8.43 25.77 1.13 Z" />
<path fill="#33d6ff" d=" M 145.88 0.87 C 147.46 0.95 149.05 1.03 150.65 1.10 C 151.86 10.92 151.06 20.83 151.34 30.69 C 146.90 29.92 142.47 30.71 138.03 30.91 C 132.73 31.10 127.98 26.31 128.15 21.02 C 127.71 15.88 131.49 10.94 136.35 9.50 C 139.57 8.67 142.91 9.34 146.13 9.84 C 146.04 6.85 145.92 3.86 145.88 0.87 Z" />
<path fill="#33d6ff" d=" M 1.00 1.36 C 2.43 1.38 3.87 1.41 5.30 1.44 C 5.52 7.36 5.46 13.29 5.49 19.21 C 8.88 16.43 11.62 12.94 15.05 10.23 C 16.79 9.85 18.58 10.09 20.34 10.08 C 18.36 13.23 14.20 15.18 13.33 18.82 C 15.84 23.39 19.82 26.97 22.49 31.46 C 20.60 31.14 18.18 31.91 16.76 30.25 C 13.99 27.42 12.15 23.77 9.09 21.20 C 7.81 22.11 6.63 23.16 5.43 24.18 C 5.47 26.62 5.49 29.06 5.51 31.50 C 4.02 31.40 2.53 31.30 1.04 31.20 C 0.86 21.25 1.10 11.30 1.00 1.36 Z" />
<path fill="#33d6ff" d=" M 75.45 9.77 C 80.71 8.45 87.60 10.32 89.36 16.00 C 90.27 20.28 90.41 25.66 86.60 28.64 C 82.78 32.33 76.97 31.92 72.26 30.50 C 72.32 33.50 72.33 36.51 72.36 39.51 C 70.64 39.38 68.92 39.25 67.19 39.11 C 67.28 29.30 67.01 19.48 67.09 9.67 C 69.87 10.07 72.70 10.55 75.45 9.77 Z" />
<path fill="#33d6ff" d=" M 94.90 10.97 C 98.77 7.97 103.98 9.48 108.41 10.00 C 108.39 11.33 108.37 12.66 108.35 13.99 C 104.96 12.94 101.43 12.34 97.97 13.47 C 98.55 18.03 103.79 18.11 106.95 20.10 C 109.76 21.49 111.76 25.57 109.31 28.17 C 105.41 32.68 98.28 32.13 93.42 29.58 C 93.53 28.39 93.78 27.23 93.99 26.06 C 97.40 26.93 101.31 28.95 104.69 26.91 C 104.78 25.56 104.70 24.21 104.64 22.86 C 101.24 21.64 97.51 20.78 94.76 18.28 C 92.62 16.46 92.47 12.62 94.90 10.97 Z" />
<path fill="#33d6ff" d=" M 157.52 9.08 C 159.02 9.14 160.52 9.20 162.02 9.25 C 162.08 9.84 162.19 11.02 162.24 11.62 C 165.24 9.10 169.09 8.55 172.89 8.76 C 172.71 9.99 172.53 11.21 172.35 12.44 C 169.02 12.42 164.29 11.84 162.91 15.80 C 161.94 20.66 162.68 25.69 162.51 30.62 C 160.87 30.54 159.24 30.47 157.61 30.39 C 157.59 23.29 157.33 16.19 157.52 9.08 Z" />
<path fill="#33d6ff" d=" M 175.91 10.89 C 181.00 8.60 187.42 7.58 192.40 10.63 C 196.37 13.50 195.38 18.82 195.50 23.06 C 195.21 25.93 196.65 28.47 197.74 31.00 C 194.79 30.57 191.80 29.00 188.79 29.90 C 184.97 30.84 180.25 31.80 177.04 28.87 C 174.37 26.72 174.28 22.19 177.00 20.05 C 180.77 16.28 186.48 17.06 191.31 16.44 C 190.24 15.25 189.33 13.89 188.04 12.91 C 185.21 11.88 182.21 12.96 179.37 13.41 C 177.62 14.16 177.03 11.68 175.91 10.89 Z" />
<path fill="#33d6ff" d=" M 40.67 13.69 C 44.74 8.70 52.47 8.43 57.93 11.05 C 61.72 13.01 62.90 17.36 62.62 21.33 C 56.06 21.34 49.50 21.26 42.94 21.41 C 43.88 25.16 46.80 28.53 51.00 28.15 C 53.90 28.73 57.50 25.25 59.62 28.12 C 59.54 28.61 59.36 29.58 59.28 30.07 C 53.83 32.09 46.96 32.68 42.15 28.86 C 37.51 25.42 36.98 18.00 40.67 13.69 Z" />
<path fill="#33d6ff" d=" M 110.90 10.16 C 113.38 13.04 118.09 15.36 117.68 19.70 C 116.18 23.15 113.69 26.07 111.80 29.31 C 111.32 25.27 114.67 22.42 116.17 19.02 C 115.23 15.71 112.38 13.27 110.90 10.16 Z" />
<path fill="#33d6ff" d=" M 127.21 10.25 C 126.03 13.40 123.35 15.82 122.46 19.03 C 124.41 22.91 127.59 26.45 126.81 31.16 C 125.68 27.02 122.97 23.69 120.92 20.02 C 120.22 15.62 124.98 13.34 127.21 10.25 Z" />
<path fill="#33d6ff" d=" M 115.44 12.35 C 116.68 11.40 118.40 11.46 119.85 11.03 C 119.40 11.56 118.49 12.61 118.03 13.14 C 118.80 13.24 120.33 13.46 121.09 13.57 C 120.33 13.65 118.82 13.81 118.06 13.90 C 118.65 14.32 119.83 15.17 120.43 15.59 C 120.04 18.68 119.68 21.78 119.11 24.84 C 118.87 22.34 118.96 19.83 118.65 17.34 C 117.84 15.52 116.46 14.04 115.44 12.35 Z" />
<path fill="#ffffff" d=" M 138.48 12.80 C 140.86 12.30 144.08 12.01 145.74 14.20 C 146.40 18.27 146.48 22.53 145.65 26.58 C 142.05 28.45 136.66 28.28 134.27 24.58 C 131.98 20.47 133.55 14.10 138.48 12.80 Z" />
<path fill="#ffffff" d=" M 43.57 17.68 C 45.07 12.73 50.99 12.55 55.12 13.82 C 56.71 14.69 57.14 16.61 58.02 18.05 C 53.20 18.20 48.37 18.12 43.57 17.68 Z" />
<path fill="#ffffff" d=" M 72.48 13.55 C 75.63 13.49 78.99 12.76 82.03 13.87 C 86.60 16.99 85.89 25.79 80.36 27.53 C 77.87 28.35 75.12 28.15 72.67 27.30 C 71.91 22.76 72.37 18.12 72.48 13.55 Z" />
<path fill="#ffffff" d=" M 182.12 21.14 C 184.76 19.82 187.90 20.45 190.76 20.25 C 190.33 22.20 191.25 24.96 189.21 26.16 C 186.63 28.34 183.14 27.67 180.15 26.94 C 180.53 24.96 179.85 22.16 182.12 21.14 Z" />
<path fill="#33d6ff" d=" M 115.73 32.45 C 116.82 30.09 117.85 27.70 118.86 25.31 C 118.91 27.37 118.94 29.43 118.97 31.49 C 119.89 30.67 120.81 29.85 121.72 29.02 C 122.27 30.14 122.81 31.26 123.36 32.39 C 120.82 32.48 118.27 32.50 115.73 32.45 Z" />
<path fill="#33d6ff" d=" M 112.22 31.32 C 115.61 31.39 110.68 34.30 112.22 31.32 Z" />
</svg>
